<?xml version="1.0" encoding="utf-8"?>
<!-- Generator: Adobe Illustrator 15.1.0, SVG Export Plug-In . SVG Version: 6.00 Build 0)  -->
<!DOCTYPE svg PUBLIC "-//W3C//DTD SVG 1.1//EN" "http://www.w3.org/Graphics/SVG/1.1/DTD/svg11.dtd">
<svg version="1.1" id="Ebene_1" xmlns="http://www.w3.org/2000/svg" xmlns:xlink="http://www.w3.org/1999/xlink" x="0px" y="0px"
	 width="100px" height="100px" viewBox="0 0 100 100" enable-background="new 0 0 100 100" xml:space="preserve">
<path d="M59.389,22H40.613C39.207,22,37,22.955,37,25.521v18.768C37,45.694,38.047,48,40.613,48h18.775
	C60.795,48,63,46.854,63,44.288V25.521C63,24.115,61.955,22,59.389,22z M40.613,24h18.775C61.051,24,61,25.099,61,25.521v1.16
	L48.868,38.916l-4.493-4.546c-0.159-0.159-0.35-0.249-0.575-0.249s-0.326,0.09-0.486,0.249L39,38.799V25.521
	C39,23.86,40.191,24,40.613,24z M59.385,46H40.613C38.951,46,39,44.71,39,44.288v-3.237c0-0.04,0.149-0.099,0.25-0.201l4.627-4.677
	l4.519,4.546c0.159,0.159,0.362,0.249,0.588,0.249s0.332-0.09,0.491-0.249L61,29.083v15.205C61,45.988,59.693,46,59.385,46z"/>
<g>
	<path d="M24.041,58.47l-0.221,1.309l-0.238,0.068c-0.68-0.521-1.393-0.782-2.141-0.782c-0.42,0-0.785,0.085-1.098,0.255
		c-0.311,0.17-0.549,0.391-0.713,0.663s-0.248,0.556-0.248,0.85c0,0.307,0.094,0.576,0.281,0.808
		c0.188,0.232,0.422,0.434,0.705,0.604s0.67,0.374,1.156,0.612c0.613,0.283,1.105,0.547,1.479,0.79
		c0.375,0.244,0.695,0.553,0.961,0.927s0.4,0.827,0.4,1.36c0,0.566-0.154,1.088-0.459,1.563c-0.307,0.477-0.738,0.856-1.293,1.14
		s-1.189,0.425-1.904,0.425c-1.043,0-2.018-0.255-2.924-0.766l0.17-1.394l0.188-0.085c0.396,0.386,0.836,0.672,1.318,0.858
		c0.48,0.188,0.943,0.28,1.385,0.28c0.43,0,0.812-0.085,1.148-0.255c0.334-0.17,0.588-0.396,0.764-0.68s0.264-0.584,0.264-0.901
		c0-0.476-0.182-0.858-0.543-1.147c-0.363-0.289-0.914-0.604-1.65-0.943c-0.6-0.295-1.082-0.558-1.445-0.79
		c-0.361-0.232-0.674-0.533-0.934-0.901c-0.262-0.368-0.391-0.818-0.391-1.352c0-0.555,0.148-1.065,0.449-1.53
		c0.301-0.464,0.721-0.83,1.258-1.096c0.539-0.267,1.154-0.4,1.846-0.4C22.393,57.959,23.203,58.13,24.041,58.47z"/>
	<path d="M33.357,59.234l-1.904-0.102h-1.105l-0.051,6.408l0.051,3.4h-1.377l0.102-3.281l-0.084-6.527h-1.105l-1.938,0.102
		l-0.086-0.136l0.102-1.055h7.396l0.102,0.137L33.357,59.234z"/>
	<path d="M42.785,59.319c0.799,0.918,1.197,2.238,1.197,3.961c0,1.848-0.424,3.275-1.275,4.284c-0.85,1.009-2.057,1.513-3.621,1.513
		c-1.473,0-2.611-0.476-3.416-1.428s-1.207-2.307-1.207-4.063c0-1.812,0.422-3.207,1.266-4.182c0.846-0.975,2.055-1.462,3.631-1.462
		C40.844,57.942,41.986,58.401,42.785,59.319z M35.857,63.416c0,3.016,1.104,4.522,3.314,4.522c2.266,0,3.4-1.474,3.4-4.42
		c0-1.507-0.275-2.627-0.824-3.357c-0.551-0.731-1.387-1.097-2.508-1.097C36.984,59.064,35.857,60.516,35.857,63.416z"/>
	<path d="M53.74,58.775l-0.271,1.241l-0.152,0.034c-0.76-0.635-1.633-0.952-2.619-0.952c-1.076,0-1.904,0.371-2.482,1.113
		s-0.867,1.827-0.867,3.256c0,1.439,0.289,2.538,0.867,3.298c0.578,0.759,1.395,1.139,2.449,1.139c1.043,0,1.988-0.346,2.838-1.037
		l0.17,0.085l-0.119,1.292c-0.984,0.544-1.988,0.816-3.008,0.816c-1.463,0-2.596-0.474-3.4-1.42s-1.207-2.298-1.207-4.055
		c0-1.802,0.42-3.189,1.258-4.164s2.029-1.463,3.57-1.463C51.91,57.959,52.902,58.231,53.74,58.775z"/>
	<path d="M57.752,68.941h-1.377l0.086-3.281l-0.086-7.616h1.395l-0.086,7.497L57.752,68.941z M64.094,68.652l-0.018,0.17
		c-0.352,0.103-0.781,0.192-1.293,0.272l-0.152-0.085c-1.836-2.086-3.4-4.007-4.691-5.764v-0.102l3.637-4.148l0.664-0.952h1.547
		l-4.402,5.117C60.938,65.167,62.506,66.998,64.094,68.652z"/>
	<path d="M71.744,58.47l-0.221,1.309l-0.238,0.068c-0.68-0.521-1.395-0.782-2.143-0.782c-0.42,0-0.785,0.085-1.096,0.255
		c-0.312,0.17-0.551,0.391-0.715,0.663s-0.246,0.556-0.246,0.85c0,0.307,0.094,0.576,0.281,0.808
		c0.186,0.232,0.422,0.434,0.705,0.604s0.668,0.374,1.156,0.612c0.611,0.283,1.104,0.547,1.479,0.79
		c0.373,0.244,0.693,0.553,0.961,0.927c0.266,0.374,0.398,0.827,0.398,1.36c0,0.566-0.152,1.088-0.459,1.563
		c-0.305,0.477-0.736,0.856-1.291,1.14c-0.557,0.283-1.191,0.425-1.904,0.425c-1.043,0-2.018-0.255-2.924-0.766l0.17-1.394
		l0.188-0.085c0.396,0.386,0.834,0.672,1.316,0.858c0.482,0.188,0.943,0.28,1.387,0.28c0.43,0,0.812-0.085,1.146-0.255
		s0.59-0.396,0.766-0.68s0.264-0.584,0.264-0.901c0-0.476-0.182-0.858-0.545-1.147s-0.912-0.604-1.648-0.943
		c-0.602-0.295-1.082-0.558-1.445-0.79s-0.674-0.533-0.936-0.901c-0.26-0.368-0.391-0.818-0.391-1.352
		c0-0.555,0.15-1.065,0.451-1.53c0.299-0.464,0.719-0.83,1.258-1.096c0.537-0.267,1.152-0.4,1.844-0.4
		C70.096,57.959,70.904,58.13,71.744,58.47z"/>
	<path d="M78.475,68.941h-1.377l0.104-3.179l-0.018-0.731l-3.469-6.987h1.463l0.221,0.612l2.381,4.896h0.135l2.602-4.862
		l0.254-0.646h1.445l-3.773,6.987l-0.018,0.731L78.475,68.941z"/>
</g>
</svg>
